<?xml version="1.0" standalone="no"?>
<!DOCTYPE svg PUBLIC "-//W3C//DTD SVG 20010904//EN"
 "http://www.w3.org/TR/2001/REC-SVG-20010904/DTD/svg10.dtd">
<svg version="1.0" xmlns="http://www.w3.org/2000/svg"
 width="512.000000pt" height="512.000000pt" viewBox="0 0 512.000000 512.000000"
 preserveAspectRatio="xMidYMid meet">
<metadata>
Created by potrace 1.11, written by Peter Selinger 2001-2013
</metadata>
<g transform="translate(0.000000,512.000000) scale(0.100000,-0.100000)"
fill="#000000" stroke="none">
<path d="M2398 5114 c-2 -1 -28 -5 -58 -7 -317 -30 -672 -159 -950 -346 -162
-109 -219 -163 -837 -783 -590 -591 -568 -565 -544 -655 12 -43 67 -102 99
-104 9 -1 276 -3 592 -4 316 -2 578 -3 581 -4 3 -1 5 -40 4 -88 l-1 -88 -139
-6 c-77 -3 -149 -10 -160 -14 -163 -62 -259 -154 -315 -300 -35 -91 -33 -225
5 -320 56 -141 148 -230 290 -279 54 -19 89 -24 188 -25 67 -1 124 -4 127 -7
3 -3 6 -105 7 -227 1 -231 10 -297 52 -421 55 -157 177 -314 331 -425 103 -75
106 -78 94 -97 -6 -10 -31 -23 -55 -30 -24 -6 -174 -53 -334 -104 -159 -51
-303 -96 -320 -100 -165 -42 -350 -118 -446 -183 -99 -67 -229 -200 -267 -273
-34 -65 -11 -162 46 -201 26 -17 111 -18 2162 -21 2066 -2 2136 -2 2170 16 84
45 101 148 39 240 -49 71 -179 196 -259 248 -113 73 -167 93 -665 248 -258 81
-474 151 -478 155 -15 15 5 38 81 91 193 135 320 318 374 537 19 77 21 118 22
320 l1 233 118 0 c135 0 118 -2 182 17 144 42 252 143 310 288 38 93 40 228 5
320 -49 128 -146 231 -264 280 -61 26 -72 27 -211 32 -71 3 -131 6 -133 8 -2
2 -5 18 -8 37 -11 89 -14 107 -20 122 -6 15 49 16 587 16 582 0 593 0 636 21
71 35 104 129 69 197 -22 41 -1149 1162 -1248 1241 -306 241 -683 397 -1069
440 -67 8 -385 12 -391 5z"/>
</g>
</svg>
