<svg width="26" height="26" viewBox="0 0 26 26" fill="none" xmlns="http://www.w3.org/2000/svg">
<rect width="11" height="11" transform="translate(8 8)" fill="white"/>
<path d="M11.1098 8.13532C11.3342 8.19802 11.9117 9.30132 12.1064 10.4607C12.3022 11.6212 11.7874 11.7675 11.706 11.8093C11.6235 11.8511 10.6786 12.0601 11.4178 13.3251C11.4178 13.3251 12.487 15.1643 14.0182 15.8859C15.5494 16.6075 15.358 15.8045 15.3866 15.5185C15.4262 15.1126 15.6704 15.0466 16.2182 15.0708C16.7242 15.0928 18.9418 15.8023 18.8901 16.921C18.8901 16.921 18.6283 18.0287 17.0641 18.7789C17.0641 18.7789 16.975 18.8174 16.8056 18.8482C16.1445 18.9714 15.1061 18.8339 13.7069 18.3147C12.7125 17.9462 11.706 17.3071 11.0284 16.5393C9.88218 15.2435 8.52698 13.8498 8.14088 10.9689C7.78118 8.28272 10.6467 8.00552 11.1098 8.13532Z" fill="url(#paint0_linear)"/>
<path d="M13 0.26001C5.96441 0.26001 0.26001 5.96441 0.26001 13C0.26001 20.0356 5.96441 25.74 13 25.74C20.0356 25.74 25.74 20.0356 25.74 13C25.74 5.96441 20.0356 0.26001 13 0.26001ZM21.19 21.19C20.1266 22.2534 18.8864 23.0906 17.5084 23.673C16.081 24.2762 14.5652 24.583 13 24.583C11.4348 24.583 9.91901 24.2762 8.49161 23.673C7.11361 23.088 5.87341 22.2534 4.81001 21.19C3.74661 20.1266 2.91201 18.8864 2.32701 17.5084C1.72381 16.081 1.41701 14.5652 1.41701 13C1.41701 11.4348 1.72381 9.91901 2.32701 8.49161C2.90941 7.11361 3.74661 5.87341 4.81001 4.81001C5.87341 3.74661 7.11361 2.91201 8.49161 2.32701C9.91901 1.72381 11.4348 1.41701 13 1.41701C14.5652 1.41701 16.081 1.72381 17.5084 2.32701C18.8864 2.90941 20.1266 3.74661 21.19 4.81001C22.2534 5.87341 23.088 7.11361 23.673 8.49161C24.2762 9.91901 24.583 11.4348 24.583 13C24.583 14.5652 24.2762 16.081 23.673 17.5084C23.088 18.8864 22.2534 20.1266 21.19 21.19Z" fill="url(#paint1_linear)"/>
<defs>
<linearGradient id="paint0_linear" x1="13.5004" y1="8.10962" x2="13.5004" y2="18.8904" gradientUnits="userSpaceOnUse">
<stop stop-color="#FF2EA1"/>
<stop offset="0.317708" stop-color="#F81D77"/>
<stop offset="0.666667" stop-color="#F73061"/>
<stop offset="0.963542" stop-color="#F4533A"/>
</linearGradient>
<linearGradient id="paint1_linear" x1="13" y1="0.26001" x2="13" y2="25.74" gradientUnits="userSpaceOnUse">
<stop stop-color="#FA0E93"/>
<stop offset="0.28125" stop-color="#F92C94"/>
<stop offset="0.666667" stop-color="#F87794"/>
<stop offset="1" stop-color="#F2622E"/>
</linearGradient>
</defs>
</svg>
